<svg xmlns="http://www.w3.org/2000/svg" version="1.1" xmlns:xlink="http://www.w3.org/1999/xlink" xmlns:svgjs="http://svgjs.dev/svgjs" width="1440" height="100" preserveAspectRatio="none" viewBox="0 0 1440 560">
<g mask="url(&quot;#SvgjsMask1000&quot;)" fill="none">
<rect width="1440" height="100" x="0" y="0" fill="#1e3266"></rect>
<path d="M1536 560L0 560 L0 350.68Q13.68 292.36, 72 306.03Q139.84 253.87, 192 321.7Q257.26 266.96, 312 332.22Q356.33 304.55, 384 348.88Q428.3 321.18, 456 365.48Q466.02 303.5, 528 313.53Q596.16 261.69, 648 329.85Q665.37 275.22, 720 292.59Q792.29 244.88, 840 317.18Q883.27 288.46, 912 331.73Q979.35 279.08, 1032 346.42Q1083.27 325.69, 1104 376.96Q1113.23 314.19, 1176 323.41Q1245.52 272.93, 1296 342.45Q1339.9 266.36, 1416 310.26Q1465.18 239.44, 1536 288.62z" fill="#182f5d"></path>
<path d="M1536 560L0 560 L0 360.85Q50.92 339.77, 72 390.7Q125.14 323.84, 192 376.97Q277.8 342.77, 312 428.58Q357.31 401.89, 384 447.21Q396.99 340.19, 504 353.18Q557.05 334.23, 576 387.28Q601.22 340.5, 648 365.71Q744.35 342.06, 768 438.41Q812.97 363.38, 888 408.35Q899.08 347.43, 960 358.51Q1025.3 303.81, 1080 369.11Q1139.49 356.6, 1152 416.09Q1174.39 366.49, 1224 388.88Q1252.18 345.06, 1296 373.24Q1375.33 332.57, 1416 411.9Q1462.47 338.37, 1536 384.83z" fill="#25467d"></path>
<path d="M1512 560L0 560 L0 421.8Q76.74 378.55, 120 455.29Q202.13 417.42, 240 499.54Q261.77 449.31, 312 471.08Q337.73 424.81, 384 450.54Q477.39 423.93, 504 517.32Q555.35 448.67, 624 500.02Q639.01 443.03, 696 458.05Q740.96 431.01, 768 475.97Q845.2 433.17, 888 510.37Q914.43 416.8, 1008 443.23Q1051.99 415.22, 1080 459.21Q1120.58 379.79, 1200 420.37Q1291.92 392.3, 1320 484.22Q1362.93 407.15, 1440 450.08Q1499.53 437.61, 1512 497.14z" fill="#356cb1"></path>
<path d="M1488 560L0 560 L0 497.46Q52.12 477.58, 72 529.69Q154.16 491.86, 192 574.02Q217.63 479.65, 312 505.28Q341.39 462.67, 384 492.06Q457.66 445.72, 504 519.37Q558.13 501.5, 576 555.63Q650.27 509.9, 696 584.17Q699.82 515.99, 768 519.81Q798.63 478.43, 840 509.06Q905.96 503.02, 912 568.99Q924.02 509.01, 984 521.03Q1035.05 452.08, 1104 503.13Q1157.06 484.19, 1176 537.25Q1226.54 467.79, 1296 518.33Q1370.61 472.93, 1416 547.54Q1423.26 482.8, 1488 490.06z" fill="white"></path></g>
<defs><mask id="SvgjsMask1000"><rect width="1440" height="100" fill="#ffffff"></rect></mask></defs>
</svg>